<mxfile host="app.diagrams.net" modified="2023-12-22T19:48:19.828Z" agent="Mozilla/5.0 (Windows NT 10.0; Win64; x64) AppleWebKit/537.36 (KHTML, like Gecko) Chrome/120.0.0.0 Safari/537.36 Edg/120.0.0.0" etag="_KMCe2EoMZe-ZGGM2Mlu" version="22.1.11" type="device">
  <diagram name="Page-1" id="SVIGxn7kq34eJ4ElqVdk">
    <mxGraphModel dx="1055" dy="599" grid="1" gridSize="10" guides="1" tooltips="1" connect="1" arrows="1" fold="1" page="1" pageScale="1" pageWidth="850" pageHeight="1100" background="#99FFCC" math="0" shadow="0">
      <root>
        <mxCell id="0" />
        <mxCell id="1" parent="0" />
        <mxCell id="QKZxDL5sUrs9mMBynjPS-3" value="" style="shape=umlLifeline;perimeter=lifelinePerimeter;whiteSpace=wrap;html=1;container=1;dropTarget=0;collapsible=0;recursiveResize=0;outlineConnect=0;portConstraint=eastwest;newEdgeStyle={&quot;curved&quot;:0,&quot;rounded&quot;:0};participant=umlActor;" vertex="1" parent="1">
          <mxGeometry x="209" y="90" width="20" height="640" as="geometry" />
        </mxCell>
        <mxCell id="QKZxDL5sUrs9mMBynjPS-4" value="" style="html=1;points=[[0,0,0,0,5],[0,1,0,0,-5],[1,0,0,0,5],[1,1,0,0,-5]];perimeter=orthogonalPerimeter;outlineConnect=0;targetShapes=umlLifeline;portConstraint=eastwest;newEdgeStyle={&quot;curved&quot;:0,&quot;rounded&quot;:0};" vertex="1" parent="QKZxDL5sUrs9mMBynjPS-3">
          <mxGeometry x="5" y="70" width="10" height="380" as="geometry" />
        </mxCell>
        <mxCell id="QKZxDL5sUrs9mMBynjPS-34" value="" style="html=1;points=[[0,0,0,0,5],[0,1,0,0,-5],[1,0,0,0,5],[1,1,0,0,-5]];perimeter=orthogonalPerimeter;outlineConnect=0;targetShapes=umlLifeline;portConstraint=eastwest;newEdgeStyle={&quot;curved&quot;:0,&quot;rounded&quot;:0};" vertex="1" parent="QKZxDL5sUrs9mMBynjPS-3">
          <mxGeometry x="5" y="560" width="10" height="30" as="geometry" />
        </mxCell>
        <mxCell id="QKZxDL5sUrs9mMBynjPS-6" value="System" style="shape=umlLifeline;perimeter=lifelinePerimeter;whiteSpace=wrap;html=1;container=1;dropTarget=0;collapsible=0;recursiveResize=0;outlineConnect=0;portConstraint=eastwest;newEdgeStyle={&quot;curved&quot;:0,&quot;rounded&quot;:0};" vertex="1" parent="1">
          <mxGeometry x="349" y="90" width="100" height="640" as="geometry" />
        </mxCell>
        <mxCell id="QKZxDL5sUrs9mMBynjPS-10" value="" style="html=1;points=[[0,0,0,0,5],[0,1,0,0,-5],[1,0,0,0,5],[1,1,0,0,-5]];perimeter=orthogonalPerimeter;outlineConnect=0;targetShapes=umlLifeline;portConstraint=eastwest;newEdgeStyle={&quot;curved&quot;:0,&quot;rounded&quot;:0};" vertex="1" parent="QKZxDL5sUrs9mMBynjPS-6">
          <mxGeometry x="45" y="80" width="10" height="370" as="geometry" />
        </mxCell>
        <mxCell id="QKZxDL5sUrs9mMBynjPS-7" value="DB" style="shape=umlLifeline;perimeter=lifelinePerimeter;whiteSpace=wrap;html=1;container=1;dropTarget=0;collapsible=0;recursiveResize=0;outlineConnect=0;portConstraint=eastwest;newEdgeStyle={&quot;curved&quot;:0,&quot;rounded&quot;:0};" vertex="1" parent="1">
          <mxGeometry x="569" y="90" width="100" height="640" as="geometry" />
        </mxCell>
        <mxCell id="QKZxDL5sUrs9mMBynjPS-8" value="Fill new account details" style="html=1;verticalAlign=bottom;endArrow=block;curved=0;rounded=0;" edge="1" parent="1" target="QKZxDL5sUrs9mMBynjPS-10">
          <mxGeometry width="80" relative="1" as="geometry">
            <mxPoint x="224" y="173.9999999999999" as="sourcePoint" />
            <mxPoint x="398.5" y="173.9999999999999" as="targetPoint" />
          </mxGeometry>
        </mxCell>
        <mxCell id="QKZxDL5sUrs9mMBynjPS-12" value="alt" style="shape=umlFrame;whiteSpace=wrap;html=1;pointerEvents=0;" vertex="1" parent="1">
          <mxGeometry x="149" y="190" width="520" height="500" as="geometry" />
        </mxCell>
        <mxCell id="QKZxDL5sUrs9mMBynjPS-13" value="" style="line;strokeWidth=1;fillColor=none;align=left;verticalAlign=middle;spacingTop=-1;spacingLeft=3;spacingRight=3;rotatable=0;labelPosition=right;points=[];portConstraint=eastwest;strokeColor=inherit;" vertex="1" parent="1">
          <mxGeometry x="149" y="636" width="520" height="8" as="geometry" />
        </mxCell>
        <mxCell id="QKZxDL5sUrs9mMBynjPS-14" value="if validation ok" style="text;html=1;strokeColor=none;fillColor=none;align=center;verticalAlign=middle;whiteSpace=wrap;rounded=0;" vertex="1" parent="1">
          <mxGeometry x="149" y="230" width="60" height="30" as="geometry" />
        </mxCell>
        <mxCell id="QKZxDL5sUrs9mMBynjPS-15" value="else" style="text;html=1;strokeColor=none;fillColor=none;align=center;verticalAlign=middle;whiteSpace=wrap;rounded=0;" vertex="1" parent="1">
          <mxGeometry x="149" y="640" width="60" height="30" as="geometry" />
        </mxCell>
        <mxCell id="QKZxDL5sUrs9mMBynjPS-18" value="Save Account" style="html=1;verticalAlign=bottom;endArrow=openThin;curved=0;rounded=0;endFill=0;" edge="1" parent="1">
          <mxGeometry width="80" relative="1" as="geometry">
            <mxPoint x="404" y="246" as="sourcePoint" />
            <mxPoint x="614" y="246" as="targetPoint" />
          </mxGeometry>
        </mxCell>
        <mxCell id="QKZxDL5sUrs9mMBynjPS-20" value="" style="html=1;points=[[0,0,0,0,5],[0,1,0,0,-5],[1,0,0,0,5],[1,1,0,0,-5]];perimeter=orthogonalPerimeter;outlineConnect=0;targetShapes=umlLifeline;portConstraint=eastwest;newEdgeStyle={&quot;curved&quot;:0,&quot;rounded&quot;:0};" vertex="1" parent="1">
          <mxGeometry x="614" y="235" width="10" height="20" as="geometry" />
        </mxCell>
        <mxCell id="QKZxDL5sUrs9mMBynjPS-21" value="View login page" style="html=1;verticalAlign=bottom;endArrow=block;curved=0;rounded=0;" edge="1" parent="1">
          <mxGeometry width="80" relative="1" as="geometry">
            <mxPoint x="394" y="298.63" as="sourcePoint" />
            <mxPoint x="224" y="298.6299999999999" as="targetPoint" />
          </mxGeometry>
        </mxCell>
        <mxCell id="QKZxDL5sUrs9mMBynjPS-22" value="Fill login info" style="html=1;verticalAlign=bottom;endArrow=block;curved=0;rounded=0;" edge="1" parent="1">
          <mxGeometry width="80" relative="1" as="geometry">
            <mxPoint x="224" y="356.6899999999999" as="sourcePoint" />
            <mxPoint x="394" y="356.69" as="targetPoint" />
          </mxGeometry>
        </mxCell>
        <mxCell id="QKZxDL5sUrs9mMBynjPS-23" value="Request for account info by email" style="html=1;verticalAlign=bottom;endArrow=block;curved=0;rounded=0;" edge="1" parent="1" target="QKZxDL5sUrs9mMBynjPS-24">
          <mxGeometry width="80" relative="1" as="geometry">
            <mxPoint x="404" y="389.9999999999999" as="sourcePoint" />
            <mxPoint x="574" y="390" as="targetPoint" />
          </mxGeometry>
        </mxCell>
        <mxCell id="QKZxDL5sUrs9mMBynjPS-24" value="" style="html=1;points=[[0,0,0,0,5],[0,1,0,0,-5],[1,0,0,0,5],[1,1,0,0,-5]];perimeter=orthogonalPerimeter;outlineConnect=0;targetShapes=umlLifeline;portConstraint=eastwest;newEdgeStyle={&quot;curved&quot;:0,&quot;rounded&quot;:0};" vertex="1" parent="1">
          <mxGeometry x="614" y="380" width="10" height="80" as="geometry" />
        </mxCell>
        <mxCell id="QKZxDL5sUrs9mMBynjPS-25" value="return account" style="html=1;verticalAlign=bottom;endArrow=open;dashed=1;endSize=8;curved=0;rounded=0;" edge="1" parent="1" target="QKZxDL5sUrs9mMBynjPS-10">
          <mxGeometry relative="1" as="geometry">
            <mxPoint x="614" y="450" as="sourcePoint" />
            <mxPoint x="534" y="450" as="targetPoint" />
          </mxGeometry>
        </mxCell>
        <mxCell id="QKZxDL5sUrs9mMBynjPS-26" value="alt" style="shape=umlFrame;whiteSpace=wrap;html=1;pointerEvents=0;" vertex="1" parent="1">
          <mxGeometry x="159" y="470" width="480" height="150" as="geometry" />
        </mxCell>
        <mxCell id="QKZxDL5sUrs9mMBynjPS-27" value="" style="line;strokeWidth=1;fillColor=none;align=left;verticalAlign=middle;spacingTop=-1;spacingLeft=3;spacingRight=3;rotatable=0;labelPosition=right;points=[];portConstraint=eastwest;strokeColor=inherit;" vertex="1" parent="1">
          <mxGeometry x="159" y="556" width="480" height="8" as="geometry" />
        </mxCell>
        <mxCell id="QKZxDL5sUrs9mMBynjPS-28" value="if account is not null" style="text;html=1;strokeColor=none;fillColor=none;align=center;verticalAlign=middle;whiteSpace=wrap;rounded=0;" vertex="1" parent="1">
          <mxGeometry x="159" y="510" width="60" height="30" as="geometry" />
        </mxCell>
        <mxCell id="QKZxDL5sUrs9mMBynjPS-29" value="Set Logged in" style="html=1;verticalAlign=bottom;endArrow=open;dashed=1;endSize=8;curved=0;rounded=0;" edge="1" parent="1">
          <mxGeometry relative="1" as="geometry">
            <mxPoint x="394" y="510" as="sourcePoint" />
            <mxPoint x="224" y="510" as="targetPoint" />
          </mxGeometry>
        </mxCell>
        <mxCell id="QKZxDL5sUrs9mMBynjPS-30" value="else" style="text;html=1;strokeColor=none;fillColor=none;align=center;verticalAlign=middle;whiteSpace=wrap;rounded=0;" vertex="1" parent="1">
          <mxGeometry x="159" y="564" width="60" height="30" as="geometry" />
        </mxCell>
        <mxCell id="QKZxDL5sUrs9mMBynjPS-31" value="Redirect to log in page" style="html=1;verticalAlign=bottom;endArrow=open;dashed=1;endSize=8;curved=0;rounded=0;" edge="1" parent="1">
          <mxGeometry relative="1" as="geometry">
            <mxPoint x="393" y="592" as="sourcePoint" />
            <mxPoint x="223" y="592" as="targetPoint" />
          </mxGeometry>
        </mxCell>
        <mxCell id="QKZxDL5sUrs9mMBynjPS-32" value="" style="html=1;points=[[0,0,0,0,5],[0,1,0,0,-5],[1,0,0,0,5],[1,1,0,0,-5]];perimeter=orthogonalPerimeter;outlineConnect=0;targetShapes=umlLifeline;portConstraint=eastwest;newEdgeStyle={&quot;curved&quot;:0,&quot;rounded&quot;:0};" vertex="1" parent="1">
          <mxGeometry x="394" y="650" width="10" height="26" as="geometry" />
        </mxCell>
        <mxCell id="QKZxDL5sUrs9mMBynjPS-33" value="" style="html=1;points=[[0,0,0,0,5],[0,1,0,0,-5],[1,0,0,0,5],[1,1,0,0,-5]];perimeter=orthogonalPerimeter;outlineConnect=0;targetShapes=umlLifeline;portConstraint=eastwest;newEdgeStyle={&quot;curved&quot;:0,&quot;rounded&quot;:0};" vertex="1" parent="1">
          <mxGeometry x="214" y="580" width="10" height="26" as="geometry" />
        </mxCell>
        <mxCell id="QKZxDL5sUrs9mMBynjPS-35" value="Redirect to sign up page" style="html=1;verticalAlign=bottom;endArrow=open;dashed=1;endSize=8;curved=0;rounded=0;" edge="1" parent="1">
          <mxGeometry relative="1" as="geometry">
            <mxPoint x="394" y="666" as="sourcePoint" />
            <mxPoint x="224" y="666" as="targetPoint" />
          </mxGeometry>
        </mxCell>
        <mxCell id="QKZxDL5sUrs9mMBynjPS-36" value="" style="whiteSpace=wrap;html=1;aspect=fixed;fillColor=none;strokeColor=#d6b656;" vertex="1" parent="1">
          <mxGeometry x="45" y="21" width="750" height="750" as="geometry" />
        </mxCell>
      </root>
    </mxGraphModel>
  </diagram>
</mxfile>
